<svg xmlns="http://www.w3.org/2000/svg" xmlns:xlink="http://www.w3.org/1999/xlink" version="1.1" x="0px" y="0px"
    viewBox="0 0 100 125" enable-background="new 0 0 100 100" xml:space="preserve">
    <g>
        <path
            d="M62.41,30.15c-1.24-0.9-2.78-1.15-4.29-0.67l-27.19,9.75h-6.74c-2.48,0-4.5,2.02-4.5,4.5v14c0,2.48,2.02,4.5,4.5,4.5h6.74   l27.24,9.77c0.48,0.15,0.97,0.23,1.46,0.23c0.99,0,1.95-0.31,2.78-0.92c1.24-0.9,1.94-2.3,1.94-3.83V33.98   C64.35,32.45,63.64,31.06,62.41,30.15z M29.69,59.24h-5.5c-0.83,0-1.5-0.67-1.5-1.5v-14c0-0.83,0.67-1.5,1.5-1.5h5.5V59.24z    M61.35,67.5c0,0.56-0.26,1.07-0.71,1.4c-0.45,0.33-1.02,0.42-1.5,0.27l-26.44-9.49V41.8l26.4-9.47c0.53-0.17,1.1-0.08,1.55,0.25   c0.45,0.33,0.71,0.84,0.71,1.4V67.5z" />
        <path
            d="M82.38,66.33l-10.21-6.18c-0.71-0.43-1.63-0.2-2.06,0.51c-0.43,0.71-0.2,1.63,0.51,2.06l10.21,6.18   c0.24,0.15,0.51,0.22,0.78,0.22c0.51,0,1-0.26,1.28-0.72C83.31,67.68,83.08,66.76,82.38,66.33z" />
        <path
            d="M71.39,52.24H81.6c0.83,0,1.5-0.67,1.5-1.5s-0.67-1.5-1.5-1.5H71.39c-0.83,0-1.5,0.67-1.5,1.5S70.56,52.24,71.39,52.24z" />
        <path
            d="M71.39,41.55c0.26,0,0.53-0.07,0.78-0.22l10.21-6.18c0.71-0.43,0.94-1.35,0.51-2.06c-0.43-0.71-1.35-0.94-2.06-0.51   l-10.21,6.18c-0.71,0.43-0.94,1.35-0.51,2.06C70.39,41.3,70.88,41.55,71.39,41.55z" />
    </g><text x="0" y="115" fill="#000000" font-size="5px" font-weight="bold"
        font-family="'Helvetica Neue', Helvetica, Arial-Unicode, Arial, Sans-serif">Created by Flip Song</text><text
        x="0" y="120" fill="#000000" font-size="5px" font-weight="bold"
        font-family="'Helvetica Neue', Helvetica, Arial-Unicode, Arial, Sans-serif">from the Noun Project</text>
</svg>